{"title":"It!The Terror From Beyond Outer Space(1958)","uid":12543197,"size":852001102,"categoryP":"video","categoryS":"movies","magnet":"?xt=urn:btih:9e2c24b97be5e8345dd5e3dffff963cfc8ef752a&amp;dn=It%21The+Terror+From+Beyond+Outer+Space%281958%29&amp;tr=udp%3A%2F%2Ftracker.leechers-paradise.org%3A6969&amp;tr=udp%3A%2F%2Fzer0day.ch%3A1337&amp;tr=udp%3A%2F%2Fopen.demonii.com%3A1337&amp;tr=udp%3A%2F%2Ftracker.coppersurfer.tk%3A6969&amp;tr=udp%3A%2F%2Fexodus.desync.com%3A6969","seeders":0,"leechers":0,"uploader":"dascuba","files":1,"time":1444428432,"description":"It! The Terror from Beyond Space (1958)\r\nApproved  |  69 min  |  Horror, Sci-Fi  |  August 1958 (USA)\r\n6.1 Your rating:   -/10   Ratings: 6.1/10 from 3,039 users   \r\nReviews: 99 user | 66 critic\r\nThe first manned expedition to Mars is decimated by an unknown life form...which stows away on the rescue ship.\r\n\r\nDirector: Edward L. Cahn\r\nWriter: Jerome Bixby (screenplay)\r\nStars: Marshall Thompson, Shirley Patterson, Kim Spaldin\r\n\r\nGeneral\r\nComplete name: C:It!The TerrorFrom Beyond SpaceIT_THE_TERROR_FROM_BEYOND_SPACE_Title1.mp4\r\nFormat                                   : MPEG-4\r\nFormat profile                           : Base Media\r\nCodec ID                                 : isom\r\nFile size                                : 813 MiB\r\nDuration                                 : 1h 9mn\r\nOverall bit rate mode                    : Constant\r\nOverall bit rate                         : 1 634 Kbps\r\nMovie name                               : IT_THE_TERROR_FROM_BEYOND_SPACE\r\nGenre                                    : Horror\r\nWriting application                      : Lavf54.6.100\r\n\r\nVideo\r\nID                                       : 1\r\nFormat                                   : MPEG-4 Visual\r\nFormat settings, BVOP                    : No\r\nFormat settings, QPel                    : No\r\nFormat settings, GMC                     : No warppoints\r\nFormat settings, Matrix                  : Default (H.263)\r\nCodec ID                                 : 20\r\nDuration                                 : 1h 9mn\r\nBit rate mode                            : Constant\r\nBit rate                                 : 1 501 Kbps\r\nWidth                                    : 720 pixels\r\nHeight                                   : 540 pixels\r\nDisplay aspect ratio                     : 4:3\r\nFrame rate mode                          : Constant\r\nFrame rate                               : 29.970 fps\r\nColor space                              : YUV\r\nChroma subsampling                       : 4:2:0\r\nBit depth                                : 8 bits\r\nScan type                                : Progressive\r\nCompression mode                         : Lossy\r\nBits/(Pixel*Frame)                       : 0.129\r\nStream size                              : 746 MiB (92%)\r\nWriting library                          : Lavc54.23.100\r\n\r\nAudio\r\nID                                       : 2\r\nFormat                                   : MPEG Audio\r\nFormat version                           : Version 1\r\nFormat profile                           : Layer 3\r\nCodec ID                                 : 6B\r\nDuration                                 : 1h 9mn\r\nBit rate mode                            : Constant\r\nBit rate                                 : 128 Kbps\r\nChannel(s)                               : 2 channels\r\nSampling rate                            : 44.1 KHz\r\nCompression mode                         : Lossy\r\nStream size                              : 63.6 MiB (8%)\r\nWriting library                          : LAME3.99.5","torrent":{"xt":"urn:btih:9e2c24b97be5e8345dd5e3dffff963cfc8ef752a","amp;dn":"It%21The+Terror+From+Beyond+Outer+Space%281958%29","amp;tr":["udp%3A%2F%2Ftracker.leechers-paradise.org%3A6969","udp%3A%2F%2Fzer0day.ch%3A1337","udp%3A%2F%2Fopen.demonii.com%3A1337","udp%3A%2F%2Ftracker.coppersurfer.tk%3A6969","udp%3A%2F%2Fexodus.desync.com%3A6969"],"infoHash":"9e2c24b97be5e8345dd5e3dffff963cfc8ef752a","infoHashBuffer":{"type":"Buffer","data":[158,44,36,185,123,229,232,52,93,213,227,223,255,249,99,207,200,239,117,42]},"announce":[],"urlList":[]}}